<svg xmlns="http://www.w3.org/2000/svg" xmlns:xlink="http://www.w3.org/1999/xlink" version="1.0" x="0" y="0" width="2400" height="786.8174951641759" viewBox="63.323744506835936 90.02718994140625 213.35251098632813 69.9456201171875" preserveAspectRatio="xMidYMid meet" color-interpolation-filters="sRGB"><g><defs><linearGradient id="92" x1="0%" y1="0%" x2="100%" y2="0%"><stop offset="0%" stop-color="#fa71cd"></stop> <stop offset="100%" stop-color="#9b59b6"></stop></linearGradient><linearGradient id="93" x1="0%" y1="0%" x2="100%" y2="0%"><stop offset="0%" stop-color="#f9d423"></stop> <stop offset="100%" stop-color="#f83600"></stop></linearGradient><linearGradient id="94" x1="0%" y1="0%" x2="100%" y2="0%"><stop offset="0%" stop-color="#0064d2"></stop> <stop offset="100%" stop-color="#1cb0f6"></stop></linearGradient><linearGradient id="95" x1="0%" y1="0%" x2="100%" y2="0%"><stop offset="0%" stop-color="#f00978"></stop> <stop offset="100%" stop-color="#3f51b1"></stop></linearGradient><linearGradient id="96" x1="0%" y1="0%" x2="100%" y2="0%"><stop offset="0%" stop-color="#7873f5"></stop> <stop offset="100%" stop-color="#ec77ab"></stop></linearGradient><linearGradient id="97" x1="0%" y1="0%" x2="100%" y2="0%"><stop offset="0%" stop-color="#f9d423"></stop> <stop offset="100%" stop-color="#e14fad"></stop></linearGradient><linearGradient id="98" x1="0%" y1="0%" x2="100%" y2="0%"><stop offset="0%" stop-color="#009efd"></stop> <stop offset="100%" stop-color="#2af598"></stop></linearGradient><linearGradient id="99" x1="0%" y1="0%" x2="100%" y2="0%"><stop offset="0%" stop-color="#ffcc00"></stop> <stop offset="100%" stop-color="#00b140"></stop></linearGradient><linearGradient id="100" x1="0%" y1="0%" x2="100%" y2="0%"><stop offset="0%" stop-color="#d51007"></stop> <stop offset="100%" stop-color="#ff8177"></stop></linearGradient><linearGradient id="102" x1="0%" y1="0%" x2="100%" y2="0%"><stop offset="0%" stop-color="#a2b6df"></stop> <stop offset="100%" stop-color="#0c3483"></stop></linearGradient><linearGradient id="103" x1="0%" y1="0%" x2="100%" y2="0%"><stop offset="0%" stop-color="#7ac5d8"></stop> <stop offset="100%" stop-color="#eea2a2"></stop></linearGradient><linearGradient id="104" x1="0%" y1="0%" x2="100%" y2="0%"><stop offset="0%" stop-color="#00ecbc"></stop> <stop offset="100%" stop-color="#007adf"></stop></linearGradient><linearGradient id="105" x1="0%" y1="0%" x2="100%" y2="0%"><stop offset="0%" stop-color="#b88746"></stop> <stop offset="100%" stop-color="#fdf5a6"></stop></linearGradient></defs><g fill="#333333" class="icon-text-wrapper icon-svg-group iconsvg" transform="translate(65.41543579101562,92.11888122558594)"><g class="iconsvg-imagesvg" transform="translate(0,13.810367584228516)"><g><rect fill="#333333" fill-opacity="0" stroke-width="2" x="0" y="0" width="40.54174741899864" height="38.14150265680585" class="image-rect"></rect> <svg x="0" y="0" width="40.54174741899864" height="38.14150265680585" filtersec="colorsb9598108" class="image-svg-svg primary" style="overflow: visible;"><svg xmlns="http://www.w3.org/2000/svg" viewBox="-2.9599990844726562 2.9600000381469727 100 94.08000183105469"><g d-rs="1" transform="matrix(0,1,-1,0,97.04,2.96)"><path fill="#333333" d="M0 75.7L23.22 100l23.82-24.93L70.86 100l23.22-24.3L83.5 64.63 72.93 75.69l.02.01-2.09 2.19-23.82-24.93-23.82 24.93-2.08-2.19v-.01L10.57 64.63 0 75.7z"></path><path d="M0 49.22l23.22 24.3L47 48.6l23.86 24.92 23.22-24.3L47 0zm21.13 0L47 22.11l26 27.11-2.14 2.18L47 26.48 23.22 51.4z" fill="#1784AC"></path></g></svg></svg> </g></g> <g transform="translate(45.541748046875,0)"><g fill-rule="" class="tp-name iconsvg-namesvg" transform="translate(0,0)"><g transform="scale(1)"><g><path d="M11.478307059623239-17.09L11.478307059623239-17.09Q11.387540721996507-11.89 13.806048280458265-8.94 16.22438128827074-5.98 20.58438128827074-5.98L20.58438128827074-5.98Q22.46438128827074-5.98 23.79717409865926-6.14 25.140141459697055-6.31 25.983457922033416-6.5L25.983457922033416-6.5 26.32383168813366-26Q25.29622478423269-26.71 23.587046924488185-27.33 21.87786906474368-27.95 19.927869064743682-27.95L19.927869064743682-27.95Q15.637869064743683-27.95 13.596900275153287-25.03 11.565756934913608-22.1 11.478307059623239-17.09ZM34.61043347497929-50.44L33.748153267525346-1.04Q31.395760171426314-0.33 27.845461683118664 0.26 24.295337745460294 0.84 20.395337745460296 0.84L20.395337745460296 0.84Q16.365337745460295 0.84 13.206807475322003-0.39 10.038451755832995-1.63 7.838598405167895-3.93 5.638919605152078-6.24 4.486172218116632-9.52 3.3434248310811854-12.8 3.4149905972868773-16.9L3.4149905972868773-16.9Q3.4853345089475942-20.93 4.552587121912148-24.21 5.610014285525984-27.5 7.600859137458013-29.84 9.60170398939004-32.18 12.413697371199596-33.44 15.235865303658434-34.71 18.875865303658433-34.71L18.875865303658433-34.71Q21.335865303658434-34.71 23.215741366000067-34.13 25.09544287769242-33.54 26.443049781593384-32.83L26.443049781593384-32.83 26.727741890572613-49.14 34.61043347497929-50.44ZM35.15394329339119-16.84L35.15394329339119-16.84Q35.232141984269596-21.32 36.62114010372697-24.7 38.020138223184354-28.08 40.259237568623554-30.32 42.518336914062765-32.56 45.39823568808094-33.7 48.2781344620991-34.84 51.2681344620991-34.84L51.2681344620991-34.84Q58.2881344620991-34.84 62.14203037901207-30.48 65.99610084657434-26.13 65.84511453494525-17.48L65.84511453494525-17.48Q65.83394329339119-16.84 65.78963014015005-16.02 65.73549153755819-15.21 65.66414574535484-14.56L65.66414574535484-14.56 43.234145745354844-14.56Q43.492579979149156-10.46 46.02348063370995-8.22 48.55438128827075-5.98 53.424381288270745-5.98L53.424381288270745-5.98Q56.284381288270744-5.98 58.66345792203341-6.5 61.052534555796086-7.02 62.42283304410373-7.61L62.42283304410373-7.61 63.350422425966016-1.17Q62.6946622545397-0.84 61.54855298181482-0.49 60.412269158440665-0.13 58.937207189611485 0.16 57.47197067013302 0.46 55.778654207796656 0.65 54.0853377454603 0.84 52.3253377454603 0.84L52.3253377454603 0.84Q47.8453377454603 0.84 44.55855298181482-0.49 41.26176821816935-1.82 39.16313672204924-4.19 37.05467977657839-6.57 36.070710534997964-9.78 35.08691584406683-13 35.15394329339119-16.84ZM43.405210571289224-20.35L58.03521057128923-20.35Q58.06348777647294-21.97 57.62897217126814-23.43 57.20445656606334-24.89 56.34330803618581-25.97 55.481984955659-27.04 54.2228070959145-27.66 52.97362923616999-28.28 51.21362923616999-28.28L51.21362923616999-28.28Q49.39362923616999-28.28 48.02158524136952-27.59 46.63971579721834-26.91 45.68034067514801-25.8 44.721140103726974-24.7 44.17617936087963-23.27 43.63121861803227-21.84 43.405210571289224-20.35L43.405210571289224-20.35ZM82.33 0L75.57 0Q72.43694893501905-6.7 69.1782843479467-15.37 65.91979431152363-24.05 63.293472207559404-34L63.293472207559404-34 71.6834722075594-34Q72.34355072186469-31.14 73.22612355825085-27.85 74.1188709452863-24.57 75.13161833232176-21.29 76.14419116870792-18 77.23042956872901-14.92 78.31649341810082-11.83 79.24337940772811-9.36L79.24337940772811-9.36Q80.26649341810082-11.83 81.420429568729-14.92 82.58419116870792-18 83.71161833232176-21.29 84.8388709452863-24.57 85.87612355825085-27.85 86.90355072186469-31.14 87.6734722075594-34L87.6734722075594-34 95.7934722075594-34Q92.82979431152363-24.05 89.2582843479467-15.37 85.69694893501905-6.7 82.33 0L82.33 0ZM91.68394329339118-16.84L91.68394329339118-16.84Q91.7621419842696-21.32 93.15114010372697-24.7 94.54013822318434-28.08 96.78923756862356-30.32 99.03833691406277-32.56 101.91823568808093-33.7 104.7981344620991-34.84 107.78813446209911-34.84L107.78813446209911-34.84Q114.8081344620991-34.84 118.66203037901207-30.48 122.51610084657433-26.13 122.36511453494525-17.48L122.36511453494525-17.48Q122.35394329339118-16.84 122.30963014015005-16.02 122.26549153755819-15.21 122.19414574535485-14.56L122.19414574535485-14.56 99.76414574535485-14.56Q100.02257997914916-10.46 102.54348063370995-8.22 105.07438128827074-5.98 109.94438128827075-5.98L109.94438128827075-5.98Q112.80438128827075-5.98 115.19345792203342-6.5 117.5725345557961-7.02 118.94283304410374-7.61L118.94283304410374-7.61 119.88042242596602-1.17Q119.2146622545397-0.84 118.07855298181482-0.49 116.93226915844068-0.13 115.46720718961149 0.16 113.99197067013301 0.46 112.29865420779666 0.65 110.6153377454603 0.84 108.8553377454603 0.84L108.8553377454603 0.84Q104.3753377454603 0.84 101.07855298181482-0.49 97.78176821816936-1.82 95.68313672204923-4.19 93.58467977657838-6.57 92.59071053499797-9.78 91.61691584406682-13 91.68394329339118-16.84ZM99.93521057128923-20.35L114.55521057128924-20.35Q114.58348777647295-21.97 114.15897217126813-23.43 113.72445656606334-24.89 112.86330803618581-25.97 112.00198495565901-27.04 110.75280709591449-27.66 109.49362923617-28.28 107.74362923617-28.28L107.74362923617-28.28Q105.91362923617-28.28 104.54158524136953-27.59 103.15971579721834-26.91 102.20034067514801-25.8 101.24114010372698-24.7 100.69617936087963-23.27 100.15121861803227-21.84 99.93521057128923-20.35L99.93521057128923-20.35ZM131.9987956674937-5.66L131.9987956674937-5.66Q135.1187956674937-5.66 136.56171241554057-6.4 138.00480371423674-7.15 138.0365719324061-8.97L138.0365719324061-8.97Q138.0660709921348-10.66 136.55544611420513-11.77 135.04464668562616-12.87 131.55733827003286-14.17L131.55733827003286-14.17Q129.43095322067683-14.95 127.65631367781369-15.83 125.88167413495052-16.71 124.61209656091653-17.88 123.32251898688254-19.05 122.6113198440141-20.7 121.89029525179494-22.36 121.93236195827195-24.77L121.93236195827195-24.77Q122.01405166213601-29.45 125.50100578679292-32.14 128.99813446209907-34.84 134.9181344620991-34.84L134.9181344620991-34.84Q137.89813446209908-34.84 140.62853417638857-34.29 143.3387593400288-33.73 144.69985725691538-33.22L144.69985725691538-33.22 143.15866849332264-26.85Q141.868792430981-27.43 139.86734541279583-27.92 137.85589839461068-28.41 135.18589839461066-28.41L135.18589839461066-28.41Q132.78589839461065-28.41 131.2715852413695-27.59 129.76744663877767-26.78 129.73794757904898-25.09L129.73794757904898-25.09Q129.72328532450928-24.25 130.00193953230593-23.6 130.2805937401026-22.95 130.9908189037428-22.39 131.69121861803228-21.84 132.85161833232175-21.29 134.02184349596195-20.73 135.6917195583036-20.15L135.6917195583036-20.15Q138.47356629077822-19.11 140.40593667520073-18.1 142.33830705962322-17.09 143.58631367781368-15.83 144.82414574535485-14.56 145.38586854017115-12.94 145.94741678433815-11.31 145.9077937869511-9.04L145.9077937869511-9.04Q145.8226130701014-4.16 142.16897540778083-1.66 138.5153377454603 0.84 131.8253377454603 0.84L131.8253377454603 0.84Q127.3353377454603 0.84 124.61825449350718 0.1 121.90134579220334-0.65 120.79920057142104-1.1L120.79920057142104-1.1 122.28388034799943-7.67Q124.03148725190039-6.96 126.45014145969705-6.31 128.8787956674937-5.66 131.9987956674937-5.66ZM145.9359924778295-13.52L146.45004413996548-42.97 154.33273572437218-44.27 154.1534722075594-34 166.25347220755938-34 166.138792430981-27.43 154.038792430981-27.43 153.79721433237447-13.59Q153.7256485661688-9.49 155.0051022025444-7.74 156.27438128827072-5.98 159.38438128827073-5.98L159.38438128827073-5.98Q161.53438128827074-5.98 163.20241061813772-6.44 164.8702653973554-6.89 165.84707287267742-7.28L165.84707287267742-7.28 167.03815326752536-1.04Q165.66802932986698-0.46 163.43720718961148 0.16 161.226385049356 0.78 158.236385049356 0.78L158.236385049356 0.78Q154.596385049356 0.78 152.17349101298564-0.2 149.750422425966-1.17 148.35271429608324-3.02 146.9551807168497-4.88 146.4110875376109-7.51 145.87699435837212-10.14 145.9359924778295-13.52L145.9359924778295-13.52Z" transform="translate(-3.4107728004455566, 50.439998626708984)"></path></g> </g></g> <g fill-rule="" class="tp-slogan iconsvg-slogansvg" fill="#1684ac" transform="translate(93.30649185180664,57.279998779296875)"> <g transform="scale(1, 1)"><g transform="scale(1.04)"><path d="M0.50-1.02L1.10-1.72Q1.52-1.27 2.09-1.00Q2.66-0.73 3.28-0.73L3.28-0.73Q4.06-0.73 4.49-1.09Q4.92-1.44 4.92-2.02L4.92-2.02Q4.92-2.32 4.82-2.53Q4.72-2.74 4.54-2.89Q4.37-3.04 4.13-3.16Q3.89-3.28 3.61-3.41L3.61-3.41L2.48-3.90Q2.21-4.02 1.92-4.19Q1.63-4.36 1.40-4.60Q1.18-4.84 1.03-5.17Q0.89-5.50 0.89-5.93L0.89-5.93Q0.89-6.37 1.07-6.76Q1.26-7.14 1.59-7.42Q1.92-7.70 2.37-7.86Q2.82-8.02 3.36-8.02L3.36-8.02Q4.07-8.02 4.67-7.75Q5.27-7.48 5.69-7.04L5.69-7.04L5.15-6.40Q4.79-6.74 4.35-6.94Q3.91-7.14 3.36-7.14L3.36-7.14Q2.70-7.14 2.30-6.83Q1.90-6.53 1.90-5.99L1.90-5.99Q1.90-5.70 2.01-5.50Q2.12-5.30 2.32-5.15Q2.51-5.00 2.74-4.89Q2.96-4.78 3.20-4.68L3.20-4.68L4.32-4.20Q4.66-4.06 4.96-3.87Q5.26-3.68 5.47-3.44Q5.69-3.19 5.81-2.86Q5.94-2.53 5.94-2.10L5.94-2.10Q5.94-1.63 5.75-1.22Q5.57-0.82 5.22-0.51Q4.87-0.20 4.38-0.03Q3.89 0.14 3.26 0.14L3.26 0.14Q2.44 0.14 1.73-0.17Q1.02-0.48 0.50-1.02L0.50-1.02ZM11.39 0.14L11.39 0.14Q10.65 0.14 10.03-0.14Q9.41-0.43 8.97-0.97Q8.52-1.50 8.28-2.26Q8.03-3.02 8.03-3.97L8.03-3.97Q8.03-4.92 8.28-5.67Q8.52-6.42 8.97-6.94Q9.41-7.46 10.03-7.74Q10.65-8.02 11.39-8.02L11.39-8.02Q12.14-8.02 12.75-7.73Q13.37-7.45 13.82-6.93Q14.27-6.41 14.52-5.66Q14.76-4.91 14.76-3.97L14.76-3.97Q14.76-3.02 14.52-2.26Q14.27-1.50 13.82-0.97Q13.37-0.43 12.75-0.14Q12.14 0.14 11.39 0.14ZM11.39-0.73L11.39-0.73Q11.92-0.73 12.35-0.96Q12.77-1.19 13.08-1.61Q13.38-2.04 13.55-2.63Q13.72-3.23 13.72-3.97L13.72-3.97Q13.72-4.70 13.55-5.29Q13.38-5.88 13.08-6.29Q12.77-6.70 12.35-6.92Q11.92-7.14 11.39-7.14L11.39-7.14Q10.86-7.14 10.44-6.92Q10.01-6.70 9.71-6.29Q9.40-5.88 9.23-5.29Q9.06-4.70 9.06-3.97L9.06-3.97Q9.06-3.23 9.23-2.63Q9.40-2.04 9.71-1.61Q10.01-1.19 10.44-0.96Q10.86-0.73 11.39-0.73ZM17.46 0L17.46-7.87L18.45-7.87L18.45-0.85L21.90-0.85L21.90 0L17.46 0ZM23.90-3.25L23.90-7.87L24.90-7.87L24.90-3.23Q24.90-2.52 25.04-2.04Q25.19-1.56 25.43-1.27Q25.68-0.98 26.02-0.86Q26.35-0.73 26.74-0.73L26.74-0.73Q27.13-0.73 27.47-0.86Q27.80-0.98 28.06-1.27Q28.31-1.56 28.45-2.04Q28.60-2.52 28.60-3.23L28.60-3.23L28.60-7.87L29.56-7.87L29.56-3.25Q29.56-2.30 29.34-1.66Q29.12-1.01 28.75-0.61Q28.37-0.20 27.85-0.03Q27.34 0.14 26.74 0.14L26.74 0.14Q26.14 0.14 25.61-0.03Q25.09-0.20 24.71-0.61Q24.34-1.01 24.12-1.66Q23.90-2.30 23.90-3.25L23.90-3.25ZM34.31 0L34.31-7.03L31.94-7.03L31.94-7.87L37.70-7.87L37.70-7.03L35.32-7.03L35.32 0L34.31 0ZM40.11 0L40.11-7.87L41.11-7.87L41.11 0L40.11 0ZM47.17 0.14L47.17 0.14Q46.43 0.14 45.81-0.14Q45.19-0.43 44.75-0.97Q44.30-1.50 44.06-2.26Q43.81-3.02 43.81-3.97L43.81-3.97Q43.81-4.92 44.06-5.67Q44.30-6.42 44.75-6.94Q45.19-7.46 45.81-7.74Q46.43-8.02 47.17-8.02L47.17-8.02Q47.92-8.02 48.53-7.73Q49.15-7.45 49.60-6.93Q50.05-6.41 50.30-5.66Q50.54-4.91 50.54-3.97L50.54-3.97Q50.54-3.02 50.30-2.26Q50.05-1.50 49.60-0.97Q49.15-0.43 48.53-0.14Q47.92 0.14 47.17 0.14ZM47.17-0.73L47.17-0.73Q47.70-0.73 48.13-0.96Q48.55-1.19 48.86-1.61Q49.16-2.04 49.33-2.63Q49.50-3.23 49.50-3.97L49.50-3.97Q49.50-4.70 49.33-5.29Q49.16-5.88 48.86-6.29Q48.55-6.70 48.13-6.92Q47.70-7.14 47.17-7.14L47.17-7.14Q46.64-7.14 46.22-6.92Q45.79-6.70 45.49-6.29Q45.18-5.88 45.01-5.29Q44.84-4.70 44.84-3.97L44.84-3.97Q44.84-3.23 45.01-2.63Q45.18-2.04 45.49-1.61Q45.79-1.19 46.22-0.96Q46.64-0.73 47.17-0.73ZM53.24 0L53.24-7.87L54.27-7.87L57.11-2.93L57.96-1.30L58.01-1.30Q57.98-1.90 57.93-2.54Q57.89-3.18 57.89-3.80L57.89-3.80L57.89-7.87L58.84-7.87L58.84 0L57.81 0L54.95-4.96L54.10-6.58L54.05-6.58Q54.10-5.98 54.14-5.36Q54.18-4.74 54.18-4.12L54.18-4.12L54.18 0L53.24 0ZM61.42-1.02L62.02-1.72Q62.44-1.27 63.01-1.00Q63.58-0.73 64.20-0.73L64.20-0.73Q64.98-0.73 65.41-1.09Q65.84-1.44 65.84-2.02L65.84-2.02Q65.84-2.32 65.74-2.53Q65.64-2.74 65.46-2.89Q65.29-3.04 65.05-3.16Q64.81-3.28 64.53-3.41L64.53-3.41L63.40-3.90Q63.13-4.02 62.84-4.19Q62.55-4.36 62.32-4.60Q62.10-4.84 61.95-5.17Q61.81-5.50 61.81-5.93L61.81-5.93Q61.81-6.37 61.99-6.76Q62.18-7.14 62.51-7.42Q62.84-7.70 63.29-7.86Q63.74-8.02 64.28-8.02L64.28-8.02Q64.99-8.02 65.59-7.75Q66.19-7.48 66.61-7.04L66.61-7.04L66.07-6.40Q65.71-6.74 65.27-6.94Q64.83-7.14 64.28-7.14L64.28-7.14Q63.62-7.14 63.22-6.83Q62.82-6.53 62.82-5.99L62.82-5.99Q62.82-5.70 62.93-5.50Q63.04-5.30 63.24-5.15Q63.43-5.00 63.66-4.89Q63.88-4.78 64.12-4.68L64.12-4.68L65.24-4.20Q65.58-4.06 65.88-3.87Q66.18-3.68 66.39-3.44Q66.61-3.19 66.73-2.86Q66.86-2.53 66.86-2.10L66.86-2.10Q66.86-1.63 66.67-1.22Q66.49-0.82 66.14-0.51Q65.79-0.20 65.30-0.03Q64.81 0.14 64.18 0.14L64.18 0.14Q63.36 0.14 62.65-0.17Q61.94-0.48 61.42-1.02L61.42-1.02Z" transform="translate(-0.504, 8.016)"></path></g></g></g></g></g><defs v-gra="od"></defs></g></svg>